<svg width="799" height="690" viewBox="0 0 799 690" fill="none" xmlns="http://www.w3.org/2000/svg">
<circle cx="419" cy="345" r="345" fill="url(#paint0_linear)" fill-opacity="0.31"/>
<path d="M528.279 285.148C528.279 285.148 557.516 331.986 585.457 357.791C613.398 383.595 645.922 410.03 626.225 458.574C606.528 507.118 548.474 526.998 444.66 524.461C340.846 521.924 304.191 521.372 281.423 469.89C258.655 418.408 334.43 406.863 386.191 391.211C437.951 375.559 528.279 285.148 528.279 285.148Z" fill="#E3E5FC"/>
<path opacity="0.49" d="M533.271 387.398C533.271 387.398 547.511 442.34 496.743 455.382C445.976 468.428 351.247 466.507 315.584 441.123C279.922 415.739 533.271 387.398 533.271 387.398Z" fill="url(#paint1_linear)"/>
<path d="M665.433 482.511C670.46 479.417 672.856 472.637 670.89 467.074C667.672 457.982 659.354 461.047 653.442 456.272C646.479 450.65 654.9 441.808 654.435 435.17C653.927 427.867 647.35 420.813 645.369 413.755C640.826 397.531 659.276 409.639 664.538 407.747C666.738 406.955 668.181 404.746 668.689 402.458C669.98 396.627 667.526 391.915 670.719 386.396C673.804 381.068 678.362 378.663 677.046 371.429C676.303 367.332 673.775 363.578 673.839 359.414C673.858 358.221 674.196 356.881 675.237 356.3C676.029 355.855 677.017 355.977 677.873 356.275C680.714 357.273 682.582 359.922 684.87 361.882C687.159 363.842 690.836 365.054 693.032 362.992C694.494 361.618 694.636 359.399 694.934 357.414C695.467 353.836 697.98 351.353 701.1 353.421C704.499 355.674 703.198 364.546 702.685 367.728C701.873 372.773 700.641 378.013 702.142 382.901C704.621 390.986 711.398 381.928 714.352 379.25C716.773 377.055 720.817 375.74 723.139 378.032C727.765 382.593 720.328 388.688 719.35 393.01C718.88 395.067 719.486 397.531 721.315 398.587C726.67 401.686 731.193 396.162 732.005 404.409C732.562 410.059 727.447 415.446 730.621 421.097C733.394 426.034 742.621 428.131 738.973 435.057C736.733 439.31 727.09 439.119 727.599 445.171C727.931 449.115 733.863 450.904 733.868 454.864C733.873 457.846 730.401 459.605 727.423 459.757C724.445 459.908 721.306 459.214 718.562 460.378C715.447 461.697 713.643 465.525 714.606 468.771C715.447 471.591 718.073 474.157 717.247 476.983C716.254 480.38 711.545 480.502 708.049 479.959C693.76 477.726 678.46 476.235 665.433 482.511Z" fill="#FDC510"/>
<path d="M692.416 481.103C691.907 481.103 691.501 480.693 691.501 480.189V416.463C691.501 415.959 691.912 415.549 692.416 415.549C692.924 415.549 693.33 415.959 693.33 416.463V480.184C693.33 480.693 692.924 481.103 692.416 481.103Z" fill="white"/>
<path d="M692.416 456.301C692.21 456.301 692.01 456.233 691.839 456.096C691.447 455.778 691.384 455.201 691.707 454.805L708.425 434.202C708.748 433.806 709.325 433.752 709.716 434.07C710.107 434.388 710.171 434.964 709.848 435.36L693.129 455.964C692.944 456.184 692.684 456.301 692.416 456.301Z" fill="white"/>
<path d="M692.416 438.899C692.205 438.899 691.995 438.831 691.824 438.684L671.897 421.923C671.511 421.595 671.462 421.018 671.785 420.632C672.112 420.246 672.689 420.197 673.076 420.52L693.002 437.281C693.389 437.609 693.438 438.186 693.115 438.572C692.934 438.792 692.675 438.899 692.416 438.899Z" fill="white"/>
<path d="M662.645 473.581C665.266 490.997 667.628 509.215 672.039 526.02C672.406 527.418 672.836 528.885 673.726 529.784C674.777 530.845 676.205 530.865 677.521 530.835C685.13 530.659 692.753 531.148 700.362 531.104C707.555 531.065 713.496 531.647 714.249 519.705C714.508 515.565 715.164 473.576 718.983 473.576C718.968 473.581 662.645 473.581 662.645 473.581Z" fill="#978CFF"/>
<path d="M713.839 483.987H667.79C662.064 483.987 657.374 479.305 657.374 473.576C657.374 467.852 662.059 463.164 667.79 463.164H713.839C719.565 463.164 724.254 467.847 724.254 473.576C724.254 479.305 719.565 483.987 713.839 483.987Z" fill="#A7ADFF"/>
<path d="M491.863 101.638C491.863 101.638 497.897 115.042 488.469 123.293C479.042 131.544 466.225 125.013 453.785 132.57C441.345 140.127 442.685 149.082 448.391 169.021C455.179 192.738 462.592 192.03 469.257 193.745C475.922 195.466 477.912 214.026 478.665 222.619C479.418 231.213 480.548 237.054 456.797 248.742C433.047 260.429 446.005 278.305 448.386 301.475C451.022 327.103 420.602 341.885 415.325 348.073C410.049 354.261 397.604 355.293 390.817 342.232C384.029 329.171 418.518 319.556 415.506 298.591C412.489 277.625 394.073 263.518 420.088 242.895C446.103 222.272 440.963 205.78 432.293 188.94C423.624 172.101 419.477 165.57 426.636 143.916C433.795 122.261 426.259 128.792 435.682 111.605C445.115 94.4235 479.423 75.5162 491.863 101.638Z" fill="#4B369D"/>
<path d="M475.457 203.365L477.35 238.653L504.983 249.304C504.983 249.304 488.367 225 491.183 203.36C494 181.725 475.457 203.365 475.457 203.365Z" fill="#D4A79A"/>
<path d="M539.496 317.84C539.496 317.84 537.663 314.482 532.166 297.237C526.67 279.991 524.685 273.578 517.051 256.89C509.418 240.202 493.536 229.776 493.536 229.776L473.687 228.705C473.687 228.705 471.242 228.857 459.795 238.32C448.342 247.783 437.35 274.8 437.35 274.8L432.465 328.525L466.822 353.861L491.105 362.61C489.936 361.051 488.993 359.399 488.406 357.649C484.337 345.561 497.971 278.613 498.43 272.659C498.89 266.705 510.425 323.486 510.425 323.486L520.416 320.587L527.271 342.422L531.56 320.128L539.496 317.84Z" fill="#F44E4E"/>
<path d="M528.655 346.841L527.267 342.422L525.051 353.939L528.655 346.841Z" fill="url(#paint2_linear)"/>
<path d="M510.416 323.486C510.416 323.486 498.88 266.705 498.421 272.659C497.961 278.613 484.328 345.561 488.396 357.649C488.983 359.399 489.927 361.051 491.095 362.61L516.078 371.609L525.052 353.934L527.267 342.418L520.411 320.582L510.416 323.486Z" fill="#FDC510"/>
<path d="M510.416 323.486C510.416 323.486 498.88 266.705 498.421 272.659C497.961 278.613 484.328 345.561 488.396 357.649C488.983 359.399 489.927 361.051 491.095 362.61L516.078 371.609L525.052 353.934L527.267 342.418L520.411 320.582L510.416 323.486Z" fill="#D7384E"/>
<path d="M307.961 302.135L448.235 308.9L475.457 335.257L344.435 331.957L307.961 302.135Z" fill="black"/>
<path d="M440.235 313.152L313.594 304.603C310.171 304.867 307.203 302.565 306.963 299.451L281.443 231.007C281.203 227.899 283.78 225.161 287.198 224.897L413.839 233.451C417.262 233.187 420.23 235.49 420.469 238.604L445.99 307.047C446.235 310.151 443.653 312.888 440.235 313.152Z" fill="#E3E5FC"/>
<path d="M376.702 274.768C378.206 267.848 372.879 260.817 364.804 259.062C356.728 257.307 348.962 261.494 347.457 268.414C345.953 275.334 351.279 282.366 359.355 284.12C367.431 285.875 375.197 281.688 376.702 274.768Z" fill="#A7ADFF"/>
<path d="M250.254 423.673L214.445 476.098L230.748 489.868L264.861 432.95C264.861 432.946 257.041 424.152 250.254 423.673Z" fill="#D4A79A"/>
<path d="M141.922 505.339C141.922 505.339 155.697 510.041 182.093 511.996C208.489 513.956 237.951 514.934 243.306 511.019C248.66 507.103 252.103 473.81 243.306 473.81C234.509 473.81 231.086 486.539 215.57 475.179C202.279 465.447 191.658 483.797 168.513 488.69C145.369 493.583 135.995 495.548 141.922 505.339Z" fill="#F3AA02"/>
<path d="M473.154 366.985C469.99 361.036 452.866 364.39 432.342 356.759C411.814 349.129 398.557 333.101 375.237 314.633C351.917 296.166 353.511 299.368 343.447 298.605C333.384 297.843 320.924 325.011 313.892 339.362C299.09 369.581 280.357 396.583 252.372 414.151C243.868 419.489 206.401 439.794 200.142 448.299C186.958 466.199 251.775 466.351 268.724 468.419C285.501 470.462 294.91 460.935 301.697 445.88C309.443 428.708 317.917 411.902 326.381 395.097C330.616 386.689 334.87 378.287 339.022 369.835C340.812 366.193 344.685 352.976 349.002 351.329C362.284 346.274 379.814 386.743 383.54 395.835C391.046 414.151 418.523 435.522 438.489 437.658C458.455 439.794 473.472 426.518 480.02 407.131C486.572 387.745 473.154 366.985 473.154 366.985Z" fill="#4B369D"/>
<path d="M318.562 427.647L282.753 480.072L299.056 493.842L333.169 436.925C333.164 436.92 325.35 428.126 318.562 427.647Z" fill="#EAC2AB"/>
<path d="M210.23 509.313C210.23 509.313 224.005 514.015 250.401 515.97C276.797 517.931 306.259 518.908 311.614 514.993C316.968 511.077 320.411 477.784 311.614 477.784C302.817 477.784 299.394 490.513 283.878 479.153C270.587 469.421 259.966 487.771 236.821 492.664C213.677 497.557 204.298 499.522 210.23 509.313Z" fill="#FDC510"/>
<path d="M524.988 366.985C521.966 361.036 505.594 364.39 485.975 356.759C466.357 349.129 453.682 333.101 431.389 314.633C409.095 296.166 410.621 299.368 401.002 298.605C391.384 297.843 379.472 325.011 372.753 339.362C352.083 383.507 309.545 413.134 270.831 440.39C268.425 442.082 265.726 444.433 266.225 447.331C266.479 448.808 267.535 450 268.616 451.041C282.978 464.899 309.883 471.132 329.218 470.227C348.685 469.318 359.252 453.08 366.606 437.022C379.76 408.295 392.611 378.692 408.592 351.426C414.597 341.191 433.736 382.515 435.398 386.362C445.31 409.336 464.988 434.652 491.858 437.658C510.944 439.794 525.296 426.518 531.56 407.131C537.814 387.745 524.988 366.985 524.988 366.985Z" fill="#5A54FF"/>
<path d="M450.768 128.249C450.768 128.249 436.01 139.13 441.883 163.571C447.756 188.011 466.02 208.884 473.389 207.412C493.765 203.345 500.91 188.95 507.976 176.598C516.641 161.449 499.438 124.495 499.438 124.495L483.188 115.736L450.768 128.249Z" fill="#EAC2AB"/>
<path d="M480.176 117.451C480.176 117.451 490.43 120.888 499.443 135.322C508.455 149.757 502.543 152.113 502.543 171.465C502.543 177.121 501.482 182.693 498.416 187.513C496.191 191.013 493.017 193.77 490.714 197.201C487.805 201.532 486.875 206.42 487.11 211.587C487.604 222.512 489.35 231.584 499.056 237.753C509.55 244.42 514.445 253.327 517.203 265.361C520.504 279.771 544.269 287.925 552.562 282.426C560.856 276.926 536.118 280.597 541.022 256.885C545.922 233.168 547.604 223.103 533.276 216.514C518.949 209.925 525.795 208.185 533.335 193.75C540.875 179.316 521.438 179.491 529.11 154.367C537.966 125.365 529.941 93.0451 486.582 101.981C443.223 110.916 480.176 117.451 480.176 117.451Z" fill="#4B369D"/>
<path d="M469.619 145.05C482.059 137.488 479.046 131.539 488.474 123.293C497.897 115.042 491.868 101.638 491.868 101.638C479.428 75.5162 445.12 94.4186 435.692 111.605C426.264 128.792 433.809 122.261 426.645 143.916C421.707 158.839 422.147 166.582 425.736 175.469L446.015 183.676C437.804 152.538 460.259 150.735 469.619 145.05Z" fill="#4B369D"/>
<path d="M520.103 345.922C520.103 345.922 520.103 354.315 516.895 352.79C513.687 351.265 483.609 332.49 479.638 328.066C475.668 323.637 466.352 307.614 465.897 304.407C465.438 301.201 466.968 301.049 460.704 301.963C454.445 302.877 443.144 306.392 444.826 308.372C446.504 310.356 451.237 308.983 451.237 308.983C451.237 308.983 445.692 312.492 448.386 312.952C451.081 313.411 459.022 311.881 459.022 314.325C459.022 316.769 458.562 325.011 460.396 329.132C462.23 333.252 464.518 334.626 470.474 335.999C476.43 337.373 477.482 336.913 482.377 341.953C487.271 346.993 514.602 371.257 518.113 372.479C521.624 373.701 523.149 375.838 527.428 368.051C531.707 360.264 534.758 354.315 535.061 342.105C535.364 329.894 533.99 318.143 533.99 318.143L520.401 320.587C520.411 320.587 521.628 334.323 520.103 345.922Z" fill="#EAC2AB"/>
<path d="M564.063 190.876C566.499 179.721 571.936 168.601 575.927 157.891C578.049 152.201 582.709 144.527 583.183 138.431C583.34 136.432 585.247 134.951 587.442 135.122L668.782 129.628C670.978 129.799 672.636 131.554 672.479 133.553L656.088 177.512C655.931 179.511 654.024 180.992 651.829 180.821L586.23 185.01C582.21 187.449 575.834 189.888 571.809 192.318C567.345 195.011 561.829 201.112 564.063 190.876Z" fill="#E3E5FC"/>
<path d="M622.929 162.886L649.359 161.738C651.139 161.659 652.528 160.144 652.45 158.365C652.372 156.586 650.856 155.197 649.076 155.276L622.645 156.424C620.865 156.503 619.477 158.018 619.555 159.797C619.633 161.572 621.149 162.96 622.929 162.886Z" fill="white"/>
<path d="M603.922 151.942L651.804 149.864C653.584 149.786 654.973 148.271 654.895 146.492C654.816 144.712 653.301 143.324 651.521 143.402L603.638 145.48C601.858 145.558 600.469 147.073 600.548 148.853C600.626 150.627 602.142 152.02 603.922 151.942Z" fill="white"/>
<path d="M325.941 200.867C323.125 187.953 316.831 175.082 312.205 162.686C309.751 156.102 304.352 147.22 303.804 140.162C303.623 137.85 301.418 136.134 298.875 136.334L204.724 129.975C202.181 130.17 200.264 132.204 200.445 134.516L219.418 185.401C219.599 187.713 221.804 189.429 224.347 189.229L300.279 194.083C304.934 196.903 312.308 199.733 316.973 202.544C322.142 205.658 328.528 212.721 325.941 200.867Z" fill="#E3E5FC"/>
<path d="M257.804 168.469L227.213 167.139C225.154 167.051 223.545 165.292 223.633 163.234C223.721 161.176 225.482 159.568 227.54 159.656L258.132 160.985C260.191 161.073 261.799 162.833 261.711 164.891C261.619 166.949 259.863 168.557 257.804 168.469Z" fill="white"/>
<path d="M279.804 155.804L224.376 153.399C222.318 153.311 220.709 151.551 220.797 149.493C220.885 147.435 222.645 145.827 224.704 145.915L280.132 148.32C282.191 148.408 283.8 150.168 283.711 152.226C283.619 154.284 281.863 155.892 279.804 155.804Z" fill="white"/>
<g opacity="0.72">
<path opacity="0.72" d="M377.633 125.536C375.819 117.222 371.765 108.936 368.792 100.954C367.213 96.716 363.736 90.9969 363.384 86.451C363.266 84.9601 361.848 83.8603 360.21 83.9874L299.589 79.896C297.951 80.0231 296.719 81.3331 296.831 82.8191L309.046 115.579C309.164 117.07 310.582 118.17 312.22 118.043L361.11 121.166C364.107 122.985 368.856 124.803 371.858 126.612C375.188 128.621 379.296 133.167 377.633 125.536Z" fill="#E3E5FC"/>
<g opacity="0.72">
<path opacity="0.72" d="M333.76 104.674L314.063 103.818C312.738 103.76 311.702 102.631 311.76 101.306C311.819 99.9812 312.948 98.9449 314.274 99.0036L333.97 99.859C335.296 99.9177 336.332 101.047 336.274 102.372C336.215 103.696 335.085 104.732 333.76 104.674Z" fill="white"/>
<path opacity="0.72" d="M347.927 96.5205L312.24 94.971C310.914 94.9123 309.878 93.7832 309.936 92.4585C309.995 91.1338 311.125 90.0975 312.45 90.1562L348.137 91.7057C349.462 91.7644 350.499 92.8935 350.44 94.2182C350.381 95.5429 349.252 96.5792 347.927 96.5205Z" fill="white"/>
</g>
</g>
<path d="M381.325 172.937L350.733 171.607C348.675 171.519 347.066 169.759 347.154 167.701C347.242 165.644 349.002 164.035 351.061 164.123L381.653 165.453C383.711 165.541 385.32 167.301 385.232 169.358C385.139 171.416 383.379 173.025 381.325 172.937Z" fill="#E3E5FC"/>
<path d="M384.376 187.879L353.785 186.55C351.726 186.462 350.117 184.702 350.205 182.644C350.293 180.586 352.054 178.978 354.112 179.066L384.704 180.396C386.763 180.484 388.372 182.243 388.284 184.301C388.191 186.359 386.435 187.972 384.376 187.879Z" fill="#E3E5FC"/>
<path d="M389.799 203.223L359.208 201.894C357.149 201.806 355.54 200.046 355.628 197.988C355.716 195.93 357.477 194.322 359.535 194.41L390.127 195.74C392.186 195.828 393.795 197.587 393.707 199.645C393.618 201.703 391.858 203.311 389.799 203.223Z" fill="#E3E5FC"/>
<defs>
<linearGradient id="paint0_linear" x1="419" y1="0" x2="419" y2="690" gradientUnits="userSpaceOnUse">
<stop stop-color="#324E9D"/>
<stop offset="1" stop-color="#121E42" stop-opacity="0"/>
</linearGradient>
<linearGradient id="paint1_linear" x1="434.41" y1="454.285" x2="412.439" y2="374.862" gradientUnits="userSpaceOnUse">
<stop stop-color="#A7ADFF"/>
<stop offset="1" stop-color="#E3E5FC"/>
</linearGradient>
<linearGradient id="paint2_linear" x1="526.279" y1="348.317" x2="495.695" y2="237.756" gradientUnits="userSpaceOnUse">
<stop stop-color="#A7ADFF"/>
<stop offset="1" stop-color="#E3E5FC"/>
</linearGradient>
</defs>
</svg>